HIERARCHY
ROOT Hips
{
  OFFSET 0 0 0
  CHANNELS 6 Xposition Yposition Zposition Zrotation Yrotation Xrotation
  JOINT LeftThigh
  {
    OFFSET 8.409438 0 -5.917753
    CHANNELS 3 Zrotation Yrotation Xrotation
    JOINT LeftLeg
    {
      OFFSET 0 0 -42.358652
      CHANNELS 3 Zrotation Yrotation Xrotation
      JOINT LeftFoot
      {
        OFFSET 0 0 -39.357303
        CHANNELS 3 Zrotation Yrotation Xrotation
      }
    }
  }
  JOINT RightThigh
  {
    OFFSET -8.409438 0 -5.917753
    CHANNELS 3 Zrotation Yrotation Xrotation
    JOINT RightLeg
    {
      OFFSET 0 0 -42.358652
      CHANNELS 3 Zrotation Yrotation Xrotation
      JOINT RightFoot
      {
        OFFSET 0 0 -39.357303
        CHANNELS 3 Zrotation Yrotation Xrotation
      }
    }
  }
  JOINT SpineLow
  {
    OFFSET 0 0 4.719101
    CHANNELS 3 Zrotation Yrotation Xrotation
    JOINT SpineMid
    {
      OFFSET 0 0 12.899191
      CHANNELS 3 Zrotation Yrotation Xrotation
      JOINT Chest
      {
        OFFSET 0 0 12.899191
        CHANNELS 3 Zrotation Yrotation Xrotation
        JOINT LeftShoulder
        {
          OFFSET 7.550562 1.41573 9.438202
          CHANNELS 3 Zrotation Yrotation Xrotation
          JOINT LeftArm
          {
            OFFSET 9.155056 0 4.247191
            CHANNELS 3 Zrotation Yrotation Xrotation
            JOINT LeftForearm
            {
              OFFSET 0 0 25.771955
              CHANNELS 3 Zrotation Yrotation Xrotation
              JOINT LeftHand
              {
                OFFSET 0 0 25.197169
                CHANNELS 3 Zrotation Yrotation Xrotation
              }
            }
          }
        }
        JOINT RightShoulder
        {
          OFFSET -7.550562 1.41573 9.438202
          CHANNELS 3 Zrotation Yrotation Xrotation
          JOINT RightArm
          {
            OFFSET -9.155056 0 4.247191
            CHANNELS 3 Zrotation Yrotation Xrotation
            JOINT RightForearm
            {
              OFFSET 0 0 -25.771955
              CHANNELS 3 Zrotation Yrotation Xrotation
              JOINT RightHand
              {
                OFFSET 0 0 -25.197169
                CHANNELS 3 Zrotation Yrotation Xrotation
              }
            }
          }
        }
        JOINT Neck
        {
          OFFSET 0 0 15.101124
          CHANNELS 3 Zrotation Yrotation Xrotation
          JOINT Head
          {
            OFFSET 0 0 11.325843
            CHANNELS 3 Zrotation Yrotation Xrotation
            End Site
            {
              OFFSET 0 0 14.157303
            }
          }
        }
      }
    }
  }
}
MOTION
Frames: 13
Frame Time: 0.0
0.0  89.887642  0.0  -3.142227  -10.627954  -94.616342  10.133956  -15.228033  4.024585  -1.43173  -0.079724  9.909618  1.846183  0.095892  0.748382  -11.257214  8.921661  -0.436525  -7.56606  6.487366  8.355004  4.461742  0.300577  -0.342573  -1.264053  -0.794975  -0.094494  -3.453199  -2.177237  -0.216725  -3.453199  -2.177237  -0.216725  -2.950381  11.330524  8.934707  143.585613  30.398324  -158.199869  -26.560209  -2.549944  52.009507  80.599252  4.925922  2.984509  -6.984508  -13.94981  14.075704  88.913334  27.991464  45.061909  15.585746  34.230825  -29.836024  91.943755  -20.374466  -4.218032  -10.337419  -7.193491  -25.884545  -8.066329  -4.969689  -19.51635  
0.0  89.887642  0.0  -3.117757  -10.229212  -94.708094  9.933995  -15.205275  4.063183  -1.49326  -0.131755  9.839056  1.822716  0.088554  0.748619  -11.262198  8.930139  -0.25987  -7.625293  6.501907  8.382189  4.469676  0.320818  -0.377647  -1.275873  -0.783036  -0.110595  -3.48501  -2.145495  -0.260975  -3.48501  -2.145495  -0.260975  -3.357466  11.662843  9.19259  143.53598  30.558536  -158.28635  -24.803771  -2.674956  49.265723  79.999731  4.30232  3.4212  -7.400188  -13.970117  14.391601  91.081547  28.109799  45.384642  20.154193  35.760129  -24.548435  92.039889  -19.775161  -3.322493  -10.609713  -7.12527  -25.803069  -8.266904  -4.908264  -19.458164  
0.0  89.887642  0.0  -3.109667  -9.669338  -94.791627  9.700245  -15.246829  4.087886  -1.460396  -0.154877  9.867109  1.659994  0.080805  0.663675  -11.598012  8.934572  -0.193913  -7.512518  6.546346  8.537501  4.533439  0.403255  -0.414513  -1.310007  -0.775495  -0.120561  -3.578032  -2.125547  -0.287511  -3.578032  -2.125547  -0.287512  -3.658885  12.017888  9.396871  142.991634  30.88264  -158.413134  -23.236936  -2.683648  46.617935  79.480546  3.679434  3.877974  -7.607253  -14.013964  14.675413  92.887719  28.248065  45.650689  24.291517  36.322454  -19.793519  92.232089  -19.430541  -2.636187  -10.870829  -7.03567  -25.728086  -8.458342  -4.831191  -19.404402  
0.0  89.887642  0.0  -3.063659  -9.143858  -94.955264  9.489858  -15.26772  4.113847  -1.515854  -0.148865  9.871269  1.582817  0.08129  0.665907  -11.583296  9.004793  -0.009262  -7.887936  6.584176  8.732183  4.53761  0.504668  -0.478676  -1.350211  -0.76518  -0.116849  -3.688099  -2.097312  -0.276643  -3.688099  -2.097312  -0.276643  -3.892424  12.24776  9.543795  142.322537  31.038706  -158.583078  -21.822765  -2.564066  44.324618  78.965724  3.08616  4.34645  -7.523841  -13.954699  15.011542  94.091314  28.473063  45.753636  27.334098  36.044406  -16.204061  92.613688  -19.480166  -2.279479  -11.068713  -6.924573  -25.643087  -8.601365  -4.740832  -19.341997  
0.0  89.887642  0.0  -3.044972  -8.620113  -95.160416  9.475864  -15.390448  4.176027  -1.654506  -0.109947  9.885337  1.434059  0.08748  0.64193  -11.614127  9.092437  0.144076  -8.441853  6.665094  9.031997  4.752939  0.617892  -0.552124  -1.367989  -0.763611  -0.095752  -3.73738  -2.091899  -0.218505  -3.737379  -2.091899  -0.218505  -4.26334  12.52791  9.624113  141.554005  31.186698  -158.822461  -20.768325  -2.346479  42.365609  78.527998  2.57085  4.804747  -7.33038  -13.912311  15.286217  94.665359  28.739538  45.849948  28.914525  35.198425  -14.013296  93.171525  -19.912675  -2.137881  -11.307558  -6.77469  -25.567756  -8.773761  -4.619482  -19.286802  
0.0  89.887642  0.0  -3.007101  -8.037582  -95.360631  9.451049  -15.449609  4.171034  -1.87664  -0.075122  9.928568  1.332728  0.087641  0.624444  -11.652119  9.205767  0.251188  -9.084691  6.755352  9.445789  4.848829  0.757251  -0.639242  -1.388508  -0.754492  -0.080413  -3.793971  -2.066163  -0.176453  -3.793971  -2.066163  -0.176453  -4.529386  12.77342  9.819004  140.691962  31.267197  -158.899662  -20.083275  -2.141484  40.678376  78.201365  2.18975  5.152433  -6.985622  -13.865817  15.632622  94.627517  29.093869  45.880941  29.287671  34.199626  -12.977697  93.628302  -20.637864  -1.995031  -11.609996  -6.657442  -25.482617  -8.995106  -4.520275  -19.225311  
0.0  89.887642  0.0  -3.025762  -7.502251  -95.535756  9.659999  -15.61399  4.119413  -2.027112  -0.031841  10.098048  1.147735  0.080402  0.545045  -11.748057  9.286954  0.272445  -9.788258  6.880223  9.921114  4.952895  0.86604  -0.704219  -1.394239  -0.740246  -0.043005  -3.810793  -2.025093  -0.07485  -3.810792  -2.025093  -0.07485  -4.969933  12.849691  9.753325  139.972369  31.182708  -159.022337  -19.693705  -1.876509  39.417237  78.032182  1.940016  5.283137  -6.681538  -13.871672  15.784074  94.104173  29.438595  45.719668  29.066682  33.390438  -12.668726  93.713915  -21.531645  -1.671582  -11.939722  -6.634656  -25.460554  -9.241459  -4.489875  -19.212558  
0.0  89.887642  0.0  -3.062386  -6.899715  -95.633563  9.899179  -15.769589  3.933655  -2.365011  0.016139  10.188062  1.017291  0.088277  0.508788  -12.006645  9.319603  0.192942  -10.125932  7.009835  10.467045  4.940659  0.943965  -0.736089  -1.430274  -0.753634  -0.036331  -3.909544  -2.061302  -0.054712  -3.909544  -2.061302  -0.054712  -5.294628  13.183968  9.777642  139.215053  31.148126  -159.252917  -19.647961  -1.638577  38.564078  78.041253  1.810926  5.233401  -6.314172  -13.60276  15.920791  93.137466  29.744126  45.285909  28.638715  32.905756  -12.794179  93.341302  -22.461806  -1.019333  -12.214264  -6.565904  -25.419044  -9.444349  -4.42759  -19.1839  
0.0  89.887642  0.0  -3.169055  -6.203091  -95.631794  10.175172  -16.017609  3.60415  -2.70895  0.122876  10.321677  0.85562  0.079101  0.456209  -12.578157  9.343115  -0.113673  -10.629111  7.076169  11.035839  5.131138  1.059177  -0.694385  -1.457322  -0.766987  -0.033521  -3.983613  -2.097627  -0.045385  -3.983613  -2.097627  -0.045384  -5.910316  13.405475  9.773208  138.623258  31.114131  -159.445643  -19.77956  -1.419272  38.154815  78.079035  1.776859  5.095632  -6.172908  -13.405526  15.9686  92.018678  30.086645  44.812091  28.028078  32.740568  -13.33449  92.637669  -23.384204  -0.01675  -12.598485  -6.566903  -25.439323  -9.733076  -4.412037  -19.203841  
0.0  89.887642  0.0  -3.338233  -5.762115  -95.651527  10.796476  -16.341816  3.255348  -3.005674  0.185701  10.490326  0.659893  0.082081  0.375337  -13.033451  9.373439  -0.489317  -10.548133  7.049073  11.820943  5.085449  1.175442  -0.681389  -1.481593  -0.792798  -0.031801  -4.05008  -2.168046  -0.038332  -4.050081  -2.168046  -0.038332  -6.269484  13.540195  9.791296  137.983264  30.994149  -159.590507  -20.040076  -1.251468  38.105262  78.126497  1.844727  4.909393  -6.072936  -13.190653  15.948206  91.152163  30.319859  44.432009  27.198936  32.754978  -14.231542  91.795734  -24.246108  1.146175  -12.852636  -6.612163  -25.436914  -9.925602  -4.435605  -19.205845  
0.0  89.887642  0.0  -3.549607  -5.259353  -95.596777  11.452407  -16.600834  2.759712  -3.48284  0.160166  10.659567  0.644843  0.095699  0.345396  -13.363327  9.251861  -0.805105  -10.736853  7.133169  12.484221  4.934012  1.249911  -0.658501  -1.538457  -0.809366  -0.041844  -4.205266  -2.213951  -0.062857  -4.205266  -2.213952  -0.062857  -6.656758  13.503307  9.757717  137.538268  30.804542  -159.678379  -20.396547  -1.062192  38.392955  78.257697  1.983998  4.652865  -5.907785  -13.113985  15.936166  90.479974  30.596131  44.16404  26.265692  32.859058  -15.304789  90.931106  -24.998519  2.264163  -13.094518  -6.719142  -25.454448  -10.111562  -4.505694  -19.223615  
0.0  89.887642  0.0  -3.852555  -5.178706  -95.587443  12.704481  -17.113707  2.310224  -4.070992  0.194319  10.769832  0.714487  0.097707  0.294338  -13.190012  8.852164  -1.016098  -10.97377  7.358532  13.098876  4.868934  1.359579  -0.587902  -1.53385  -0.847534  0.002505  -4.194295  -2.31542  0.060623  -4.194295  -2.31542  0.060623  -6.901562  13.408787  9.58334  136.955954  30.712284  -159.713215  -20.826982  -0.81105  38.971134  78.485049  2.177727  4.259169  -5.822011  -13.083746  15.581166  90.126744  30.834776  43.948171  25.347015  33.02356  -16.339463  90.240521  -25.598434  3.176267  -13.232496  -6.888571  -25.603493  -10.223657  -4.624293  -19.339649  
0.0  89.887642  0.0  -4.150469  -5.337221  -95.517091  13.352006  -17.086714  1.67333  -3.796715  -0.249752  11.243184  0.828522  0.102327  0.23362  -12.55908  8.328724  -1.288399  -11.537225  7.69582  13.672327  4.864698  1.465505  -0.504858  -1.515796  -0.889429  0.039002  -4.14643  -2.427621  0.162376  -4.14643  -2.427621  0.162376  -7.46927  13.330409  9.184103  136.736657  30.544105  -159.77217  -21.422541  -0.525019  39.680423  78.801018  2.424647  3.783547  -5.609522  -12.985142  15.29948  89.917653  31.17878  43.62794  24.464639  33.269948  -17.24607  89.926588  -26.005541  3.778678  -13.391976  -7.01872  -25.832329  -10.35148  -4.71069  -19.51521  
